<?xml version="1.0" standalone="no"?>
<!DOCTYPE svg PUBLIC "-//W3C//DTD SVG 20010904//EN"
 "http://www.w3.org/TR/2001/REC-SVG-20010904/DTD/svg10.dtd">
<svg version="1.0" xmlns="http://www.w3.org/2000/svg"
 width="700.000000pt" height="700.000000pt" viewBox="0 0 700.000000 700.000000"
 preserveAspectRatio="xMidYMid meet">
<metadata>
Created by potrace 1.14, written by Peter Selinger 2001-2017
</metadata>
<g transform="translate(0.000000,700.000000) scale(0.100000,-0.100000)"
fill="#000000" stroke="none">
<path d="M3190 6989 c-234 -21 -536 -82 -761 -155 -1359 -436 -2309 -1641
-2420 -3068 -14 -190 -7 -517 16 -694 85 -662 336 -1256 751 -1777 113 -141
378 -406 519 -519 458 -365 984 -608 1545 -715 240 -45 364 -56 655 -56 283 0
377 7 605 45 575 97 1136 351 1605 726 141 113 406 378 519 519 411 514 663
1110 753 1780 24 184 24 666 0 850 -76 569 -257 1056 -562 1515 -316 475 -716
845 -1216 1124 -387 216 -798 349 -1274 412 -135 18 -590 26 -735 13z m1717
-1790 c334 -46 568 -330 551 -668 -14 -262 -182 -482 -438 -573 -63 -22 -78
-23 -452 -26 l-388 -3 0 -788 c0 -753 -1 -791 -20 -865 -92 -361 -474 -567
-826 -446 -92 32 -165 79 -244 159 -80 81 -123 152 -162 266 l-23 70 -2 800
-1 800 -384 5 c-423 6 -426 7 -559 76 -88 47 -168 119 -227 209 -166 247 -138
572 68 788 104 109 229 175 372 196 94 13 2638 14 2735 0z"/>
</g>
</svg>
