<svg width="500" height="135" viewBox="0 0 500 135" fill="none" xmlns="http://www.w3.org/2000/svg">
<path d="M168.525 50.1V55.75H159.225V85H152.225V55.75H142.925V50.1H168.525ZM185.983 56.9C188.083 56.9 189.949 57.3667 191.583 58.3C193.216 59.2 194.483 60.55 195.383 62.35C196.316 64.1167 196.783 66.25 196.783 68.75V85H189.783V69.7C189.783 67.5 189.233 65.8167 188.133 64.65C187.033 63.45 185.533 62.85 183.633 62.85C181.699 62.85 180.166 63.45 179.033 64.65C177.933 65.8167 177.383 67.5 177.383 69.7V85H170.383V48H177.383V60.75C178.283 59.55 179.483 58.6167 180.983 57.95C182.483 57.25 184.149 56.9 185.983 56.9ZM198.389 71.05C198.389 68.25 198.939 65.7667 200.039 63.6C201.173 61.4333 202.689 59.7667 204.589 58.6C206.523 57.4333 208.673 56.85 211.039 56.85C213.106 56.85 214.906 57.2667 216.439 58.1C218.006 58.9333 219.256 59.9833 220.189 61.25V57.3H227.239V85H220.189V80.95C219.289 82.25 218.039 83.3333 216.439 84.2C214.873 85.0333 213.056 85.45 210.989 85.45C208.656 85.45 206.523 84.85 204.589 83.65C202.689 82.45 201.173 80.7667 200.039 78.6C198.939 76.4 198.389 73.8833 198.389 71.05ZM220.189 71.15C220.189 69.45 219.856 68 219.189 66.8C218.523 65.5667 217.623 64.6333 216.489 64C215.356 63.3333 214.139 63 212.839 63C211.539 63 210.339 63.3167 209.239 63.95C208.139 64.5833 207.239 65.5167 206.539 66.75C205.873 67.95 205.539 69.3833 205.539 71.05C205.539 72.7167 205.873 74.1833 206.539 75.45C207.239 76.6833 208.139 77.6333 209.239 78.3C210.373 78.9667 211.573 79.3 212.839 79.3C214.139 79.3 215.356 78.9833 216.489 78.35C217.623 77.6833 218.523 76.75 219.189 75.55C219.856 74.3167 220.189 72.85 220.189 71.15ZM234.376 54C233.143 54 232.109 53.6167 231.276 52.85C230.476 52.05 230.076 51.0667 230.076 49.9C230.076 48.7333 230.476 47.7667 231.276 47C232.109 46.2 233.143 45.8 234.376 45.8C235.609 45.8 236.626 46.2 237.426 47C238.259 47.7667 238.676 48.7333 238.676 49.9C238.676 51.0667 238.259 52.05 237.426 52.85C236.626 53.6167 235.609 54 234.376 54ZM237.826 57.3V85H230.826V57.3H237.826ZM248.492 61.6C249.392 60.1333 250.559 58.9833 251.992 58.15C253.459 57.3167 255.125 56.9 256.992 56.9V64.25H255.142C252.942 64.25 251.275 64.7667 250.142 65.8C249.042 66.8333 248.492 68.6333 248.492 71.2V85H241.492V57.3H248.492V61.6ZM265.457 48V85H258.457V48H265.457ZM267.323 71.05C267.323 68.25 267.873 65.7667 268.973 63.6C270.106 61.4333 271.623 59.7667 273.523 58.6C275.456 57.4333 277.606 56.85 279.973 56.85C282.04 56.85 283.84 57.2667 285.373 58.1C286.94 58.9333 288.19 59.9833 289.123 61.25V57.3H296.173V85H289.123V80.95C288.223 82.25 286.973 83.3333 285.373 84.2C283.806 85.0333 281.99 85.45 279.923 85.45C277.59 85.45 275.456 84.85 273.523 83.65C271.623 82.45 270.106 80.7667 268.973 78.6C267.873 76.4 267.323 73.8833 267.323 71.05ZM289.123 71.15C289.123 69.45 288.79 68 288.123 66.8C287.456 65.5667 286.556 64.6333 285.423 64C284.29 63.3333 283.073 63 281.773 63C280.473 63 279.273 63.3167 278.173 63.95C277.073 64.5833 276.173 65.5167 275.473 66.75C274.806 67.95 274.473 69.3833 274.473 71.05C274.473 72.7167 274.806 74.1833 275.473 75.45C276.173 76.6833 277.073 77.6333 278.173 78.3C279.306 78.9667 280.506 79.3 281.773 79.3C283.073 79.3 284.29 78.9833 285.423 78.35C286.556 77.6833 287.456 76.75 288.123 75.55C288.79 74.3167 289.123 72.85 289.123 71.15ZM315.11 56.9C318.41 56.9 321.076 57.95 323.11 60.05C325.143 62.1167 326.16 65.0167 326.16 68.75V85H319.16V69.7C319.16 67.5 318.61 65.8167 317.51 64.65C316.41 63.45 314.91 62.85 313.01 62.85C311.076 62.85 309.543 63.45 308.41 64.65C307.31 65.8167 306.76 67.5 306.76 69.7V85H299.76V57.3H306.76V60.75C307.693 59.55 308.876 58.6167 310.31 57.95C311.776 57.25 313.376 56.9 315.11 56.9ZM359.63 78.35H345.73L343.43 85H336.08L348.63 50.05H356.78L369.33 85H361.93L359.63 78.35ZM357.73 72.75L352.68 58.15L347.63 72.75H357.73ZM386.121 56.9C389.421 56.9 392.088 57.95 394.121 60.05C396.155 62.1167 397.171 65.0167 397.171 68.75V85H390.171V69.7C390.171 67.5 389.621 65.8167 388.521 64.65C387.421 63.45 385.921 62.85 384.021 62.85C382.088 62.85 380.555 63.45 379.421 64.65C378.321 65.8167 377.771 67.5 377.771 69.7V85H370.771V57.3H377.771V60.75C378.705 59.55 379.888 58.6167 381.321 57.95C382.788 57.25 384.388 56.9 386.121 56.9ZM404.128 54C402.861 54 401.811 53.6167 400.978 52.85C400.178 52.05 399.778 51.0667 399.778 49.9C399.778 48.7333 400.178 47.7667 400.978 47C401.811 46.2 402.861 45.8 404.128 45.8C405.361 45.8 406.378 46.2 407.178 47C407.978 47.7667 408.378 48.7333 408.378 49.9C408.378 51.0667 407.978 52.05 407.178 52.85C406.378 53.6167 405.361 54 404.128 54ZM407.578 89.55C407.578 92.6167 406.811 94.8167 405.278 96.15C403.778 97.5167 401.611 98.2 398.778 98.2H395.678V92.25H397.678C398.745 92.25 399.495 92.0333 399.928 91.6C400.361 91.2 400.578 90.5333 400.578 89.6V57.3H407.578V89.55ZM423.544 85.45C420.877 85.45 418.477 84.8667 416.344 83.7C414.211 82.5 412.527 80.8167 411.294 78.65C410.094 76.4833 409.494 73.9833 409.494 71.15C409.494 68.3167 410.111 65.8167 411.344 63.65C412.611 61.4833 414.327 59.8167 416.494 58.65C418.661 57.45 421.077 56.85 423.744 56.85C426.411 56.85 428.827 57.45 430.994 58.65C433.161 59.8167 434.861 61.4833 436.094 63.65C437.361 65.8167 437.994 68.3167 437.994 71.15C437.994 73.9833 437.344 76.4833 436.044 78.65C434.777 80.8167 433.044 82.5 430.844 83.7C428.677 84.8667 426.244 85.45 423.544 85.45ZM423.544 79.35C424.811 79.35 425.994 79.05 427.094 78.45C428.227 77.8167 429.127 76.8833 429.794 75.65C430.461 74.4167 430.794 72.9167 430.794 71.15C430.794 68.5167 430.094 66.5 428.694 65.1C427.327 63.6667 425.644 62.95 423.644 62.95C421.644 62.95 419.961 63.6667 418.594 65.1C417.261 66.5 416.594 68.5167 416.594 71.15C416.594 73.7833 417.244 75.8167 418.544 77.25C419.877 78.65 421.544 79.35 423.544 79.35ZM450.479 85.45C448.212 85.45 446.179 85.05 444.379 84.25C442.579 83.4167 441.145 82.3 440.079 80.9C439.045 79.5 438.479 77.95 438.379 76.25H445.429C445.562 77.3167 446.079 78.2 446.979 78.9C447.912 79.6 449.062 79.95 450.429 79.95C451.762 79.95 452.795 79.6833 453.529 79.15C454.295 78.6167 454.679 77.9333 454.679 77.1C454.679 76.2 454.212 75.5333 453.279 75.1C452.379 74.6333 450.929 74.1333 448.929 73.6C446.862 73.1 445.162 72.5833 443.829 72.05C442.529 71.5167 441.395 70.7 440.429 69.6C439.495 68.5 439.029 67.0167 439.029 65.15C439.029 63.6167 439.462 62.2167 440.329 60.95C441.229 59.6833 442.495 58.6833 444.129 57.95C445.795 57.2167 447.745 56.85 449.979 56.85C453.279 56.85 455.912 57.6833 457.879 59.35C459.845 60.9833 460.929 63.2 461.129 66H454.429C454.329 64.9 453.862 64.0333 453.029 63.4C452.229 62.7333 451.145 62.4 449.779 62.4C448.512 62.4 447.529 62.6333 446.829 63.1C446.162 63.5667 445.829 64.2167 445.829 65.05C445.829 65.9833 446.295 66.7 447.229 67.2C448.162 67.6667 449.612 68.15 451.579 68.65C453.579 69.15 455.229 69.6667 456.529 70.2C457.829 70.7333 458.945 71.5667 459.879 72.7C460.845 73.8 461.345 75.2667 461.379 77.1C461.379 78.7 460.929 80.1333 460.029 81.4C459.162 82.6667 457.895 83.6667 456.229 84.4C454.595 85.1 452.679 85.45 450.479 85.45Z" fill="#212121"/>
<path d="M116.544 17V117.094" stroke="black" stroke-opacity="0.28"/>
<path fill-rule="evenodd" clip-rule="evenodd" d="M21 67.5C21 47.8939 36.8939 32 56.5 32C76.1061 32 92 47.8939 92 67.5C92 87.1061 76.1061 103 56.5 103C36.8939 103 21 87.1061 21 67.5ZM50.7135 60.4355H62.251V82.1082C62.251 85.2942 59.6682 87.877 56.4822 87.877C53.2963 87.877 50.7135 85.2942 50.7135 82.1082V60.4355ZM44.4123 47.123C41.2263 47.123 38.6435 49.7058 38.6435 52.8917C38.6435 56.0777 41.2263 58.6605 44.4123 58.6605H68.5523C71.7382 58.6605 74.321 56.0777 74.321 52.8917C74.321 49.7058 71.7382 47.123 68.5523 47.123H44.4123Z" fill="#212121"/>
</svg>
