<svg width="225" height="60" viewBox="0 0 225 60" fill="none" xmlns="http://www.w3.org/2000/svg">
<path d="M68.7551 40.5963V21.5675H72.5443V40.5963H68.7551ZM62.5597 24.4993V21.1527H78.7397V24.4993H62.5597ZM88.1408 40.5963V32.935C88.1408 32.1421 87.8919 31.4968 87.394 30.9989C86.8962 30.5011 86.2508 30.2522 85.458 30.2522C84.9417 30.2522 84.4807 30.3628 84.0751 30.5841C83.6694 30.8053 83.3467 31.1188 83.107 31.5244C82.8858 31.9301 82.7751 32.4003 82.7751 32.935L81.3646 32.2159C81.3646 31.1649 81.5858 30.2522 82.0284 29.4777C82.4709 28.6849 83.0794 28.0672 83.8538 27.6247C84.6467 27.1821 85.5502 26.9609 86.5643 26.9609C87.5784 26.9609 88.4727 27.1821 89.2471 27.6247C90.04 28.0672 90.6577 28.6757 91.1002 29.4501C91.5427 30.2245 91.764 31.1188 91.764 32.1329V40.5963H88.1408ZM79.1519 40.5963V20.5995H82.7751V40.5963H79.1519ZM98.4717 40.8729C97.2548 40.8729 96.1577 40.5686 95.1804 39.9601C94.2032 39.3517 93.438 38.5219 92.8848 37.4709C92.3316 36.4199 92.0551 35.2398 92.0551 33.9307C92.0551 32.6031 92.3316 31.4138 92.8848 30.3628C93.438 29.3118 94.2032 28.4821 95.1804 27.8736C96.1577 27.2651 97.2548 26.9609 98.4717 26.9609C99.4305 26.9609 100.288 27.1545 101.044 27.5417C101.8 27.9289 102.399 28.4728 102.842 29.1735C103.303 29.8557 103.552 30.6302 103.588 31.4968V36.3093C103.552 37.1943 103.303 37.978 102.842 38.6602C102.399 39.3425 101.8 39.8864 101.044 40.292C100.288 40.6793 99.4305 40.8729 98.4717 40.8729ZM99.1355 37.5262C100.15 37.5262 100.97 37.1943 101.597 36.5306C102.224 35.8483 102.537 34.9725 102.537 33.903C102.537 33.2024 102.39 32.5847 102.095 32.0499C101.818 31.4968 101.422 31.0727 100.906 30.7777C100.408 30.4642 99.8178 30.3075 99.1355 30.3075C98.4717 30.3075 97.8817 30.4642 97.3654 30.7777C96.8676 31.0727 96.4711 31.4968 96.1761 32.0499C95.8995 32.5847 95.7612 33.2024 95.7612 33.903C95.7612 34.6221 95.8995 35.2583 96.1761 35.8114C96.4711 36.3462 96.8676 36.7703 97.3654 37.0837C97.8817 37.3787 98.4717 37.5262 99.1355 37.5262ZM102.344 40.5963V37.0007L102.925 33.7371L102.344 30.5288V27.2374H105.939V40.5963H102.344ZM107.347 40.5963V27.2374H110.998V40.5963H107.347ZM109.172 25.0801C108.582 25.0801 108.094 24.8865 107.706 24.4993C107.319 24.0936 107.126 23.5958 107.126 23.0058C107.126 22.4342 107.319 21.9455 107.706 21.5399C108.094 21.1342 108.582 20.9314 109.172 20.9314C109.781 20.9314 110.269 21.1342 110.638 21.5399C111.025 21.9455 111.219 22.4342 111.219 23.0058C111.219 23.5958 111.025 24.0936 110.638 24.4993C110.269 24.8865 109.781 25.0801 109.172 25.0801ZM112.41 40.5963V27.2374H116.033V40.5963H112.41ZM116.033 33.2116L114.622 32.2712C114.788 30.6302 115.268 29.3395 116.061 28.3991C116.853 27.4403 117.997 26.9609 119.49 26.9609C120.135 26.9609 120.716 27.0715 121.233 27.2928C121.749 27.4956 122.219 27.8367 122.643 28.3161L120.375 30.916C120.172 30.6947 119.923 30.5288 119.628 30.4181C119.352 30.3075 119.029 30.2522 118.66 30.2522C117.886 30.2522 117.25 30.5011 116.752 30.9989C116.273 31.4783 116.033 32.2159 116.033 33.2116ZM122.118 40.5963V20.5995H125.741V40.5963H122.118ZM132.741 40.8729C131.524 40.8729 130.427 40.5686 129.449 39.9601C128.472 39.3517 127.707 38.5219 127.154 37.4709C126.601 36.4199 126.324 35.2398 126.324 33.9307C126.324 32.6031 126.601 31.4138 127.154 30.3628C127.707 29.3118 128.472 28.4821 129.449 27.8736C130.427 27.2651 131.524 26.9609 132.741 26.9609C133.7 26.9609 134.557 27.1545 135.313 27.5417C136.069 27.9289 136.668 28.4728 137.111 29.1735C137.572 29.8557 137.821 30.6302 137.857 31.4968V36.3093C137.821 37.1943 137.572 37.978 137.111 38.6602C136.668 39.3425 136.069 39.8864 135.313 40.292C134.557 40.6793 133.7 40.8729 132.741 40.8729ZM133.404 37.5262C134.419 37.5262 135.239 37.1943 135.866 36.5306C136.493 35.8483 136.806 34.9725 136.806 33.903C136.806 33.2024 136.659 32.5847 136.364 32.0499C136.087 31.4968 135.691 31.0727 135.175 30.7777C134.677 30.4642 134.087 30.3075 133.404 30.3075C132.741 30.3075 132.151 30.4642 131.634 30.7777C131.137 31.0727 130.74 31.4968 130.445 32.0499C130.169 32.5847 130.03 33.2024 130.03 33.903C130.03 34.6221 130.169 35.2583 130.445 35.8114C130.74 36.3462 131.137 36.7703 131.634 37.0837C132.151 37.3787 132.741 37.5262 133.404 37.5262ZM136.613 40.5963V37.0007L137.194 33.7371L136.613 30.5288V27.2374H140.208V40.5963H136.613ZM150.605 40.5963V32.935C150.605 32.1421 150.356 31.4968 149.858 30.9989C149.36 30.5011 148.715 30.2522 147.922 30.2522C147.406 30.2522 146.945 30.3628 146.539 30.5841C146.133 30.8053 145.811 31.1188 145.571 31.5244C145.35 31.9301 145.239 32.4003 145.239 32.935L143.829 32.2159C143.829 31.1649 144.05 30.2522 144.492 29.4777C144.953 28.6849 145.58 28.0672 146.373 27.6247C147.184 27.1821 148.097 26.9609 149.111 26.9609C150.088 26.9609 150.964 27.2098 151.739 27.7076C152.513 28.187 153.122 28.8232 153.564 29.616C154.007 30.3905 154.228 31.2294 154.228 32.1329V40.5963H150.605ZM141.616 40.5963V27.2374H145.239V40.5963H141.616ZM157.119 40.5963L164.946 21.1527H168.016L175.816 40.5963H171.805L165.776 24.6376H167.159L161.046 40.5963H157.119ZM161.267 36.9731V33.8201H171.722V36.9731H161.267ZM185.132 40.5963V32.935C185.132 32.1421 184.883 31.4968 184.385 30.9989C183.887 30.5011 183.242 30.2522 182.449 30.2522C181.933 30.2522 181.472 30.3628 181.066 30.5841C180.661 30.8053 180.338 31.1188 180.098 31.5244C179.877 31.9301 179.766 32.4003 179.766 32.935L178.356 32.2159C178.356 31.1649 178.577 30.2522 179.02 29.4777C179.48 28.6849 180.107 28.0672 180.9 27.6247C181.712 27.1821 182.624 26.9609 183.638 26.9609C184.616 26.9609 185.492 27.2098 186.266 27.7076C187.04 28.187 187.649 28.8232 188.091 29.616C188.534 30.3905 188.755 31.2294 188.755 32.1329V40.5963H185.132ZM176.143 40.5963V27.2374H179.766V40.5963H176.143ZM188.797 46.5151C187.838 46.5151 187.046 46.3584 186.419 46.0449C185.773 45.7315 185.193 45.2889 184.676 44.7173L186.972 42.4217C187.193 42.6983 187.433 42.8919 187.691 43.0025C187.931 43.1316 188.216 43.1961 188.548 43.1961C189.009 43.1961 189.397 43.0578 189.71 42.7813C190.023 42.5047 190.18 42.099 190.18 41.5643V27.2374H193.803V41.509C193.803 42.56 193.573 43.4543 193.112 44.1918C192.669 44.9478 192.07 45.5194 191.314 45.9066C190.577 46.3123 189.738 46.5151 188.797 46.5151ZM192.033 25.0801C191.443 25.0801 190.955 24.8865 190.567 24.4993C190.18 24.0936 189.987 23.5958 189.987 23.0058C189.987 22.4342 190.18 21.9455 190.567 21.5399C190.955 21.1342 191.443 20.9314 192.033 20.9314C192.642 20.9314 193.13 21.1342 193.499 21.5399C193.886 21.9455 194.08 22.4342 194.08 23.0058C194.08 23.5958 193.886 24.0936 193.499 24.4993C193.13 24.8865 192.642 25.0801 192.033 25.0801ZM201.46 40.8729C200.114 40.8729 198.897 40.5686 197.809 39.9601C196.74 39.3332 195.882 38.4943 195.237 37.4433C194.61 36.3738 194.297 35.1845 194.297 33.8754C194.297 32.5662 194.61 31.3954 195.237 30.3628C195.864 29.3118 196.721 28.4821 197.809 27.8736C198.897 27.2467 200.105 26.9332 201.432 26.9332C202.797 26.9332 204.014 27.2467 205.083 27.8736C206.171 28.4821 207.029 29.3118 207.656 30.3628C208.282 31.3954 208.596 32.5662 208.596 33.8754C208.596 35.1845 208.282 36.3738 207.656 37.4433C207.029 38.4943 206.171 39.3332 205.083 39.9601C204.014 40.5686 202.806 40.8729 201.46 40.8729ZM201.432 37.4986C202.115 37.4986 202.714 37.3511 203.23 37.0561C203.765 36.7426 204.171 36.3185 204.447 35.7838C204.742 35.2306 204.89 34.6037 204.89 33.903C204.89 33.2024 204.742 32.5847 204.447 32.0499C204.152 31.5152 203.747 31.1004 203.23 30.8053C202.714 30.4919 202.115 30.3351 201.432 30.3351C200.769 30.3351 200.179 30.4919 199.662 30.8053C199.146 31.1004 198.74 31.5152 198.445 32.0499C198.15 32.5847 198.003 33.2024 198.003 33.903C198.003 34.6037 198.15 35.2306 198.445 35.7838C198.74 36.3185 199.146 36.7426 199.662 37.0561C200.179 37.3511 200.769 37.4986 201.432 37.4986ZM213.722 40.9005C212.966 40.9005 212.219 40.7991 211.482 40.5963C210.763 40.3935 210.099 40.1169 209.49 39.7665C208.882 39.3978 208.356 38.9552 207.914 38.439L210.071 36.254C210.532 36.7703 211.067 37.1575 211.675 37.4156C212.284 37.6737 212.957 37.8028 213.694 37.8028C214.284 37.8028 214.727 37.7198 215.022 37.5539C215.335 37.3879 215.492 37.139 215.492 36.8071C215.492 36.4384 215.326 36.1526 214.994 35.9497C214.681 35.7469 214.266 35.581 213.75 35.4519C213.233 35.3044 212.689 35.1476 212.118 34.9817C211.565 34.7973 211.03 34.5668 210.514 34.2902C209.997 33.9952 209.573 33.5988 209.241 33.101C208.928 32.5847 208.771 31.9209 208.771 31.1096C208.771 30.2614 208.974 29.5238 209.38 28.8969C209.804 28.27 210.403 27.7814 211.177 27.4311C211.952 27.0807 212.865 26.9055 213.916 26.9055C215.022 26.9055 216.018 27.0992 216.903 27.4864C217.806 27.8736 218.553 28.4544 219.143 29.2288L216.958 31.4138C216.552 30.916 216.091 30.5564 215.575 30.3351C215.077 30.1139 214.533 30.0033 213.943 30.0033C213.408 30.0033 212.994 30.0862 212.699 30.2522C212.422 30.4181 212.284 30.6486 212.284 30.9436C212.284 31.2755 212.44 31.5337 212.754 31.718C213.086 31.9024 213.51 32.0684 214.026 32.2159C214.542 32.345 215.077 32.5017 215.63 32.6861C216.202 32.852 216.737 33.0917 217.235 33.4052C217.751 33.7186 218.166 34.1335 218.479 34.6498C218.811 35.1661 218.977 35.8299 218.977 36.6412C218.977 37.9503 218.507 38.9921 217.566 39.7665C216.626 40.5225 215.345 40.9005 213.722 40.9005Z" fill="#212121"/>
<path d="M50.3836 2.00003V57.3679" stroke="black" stroke-opacity="0.28" stroke-width="0.553161"/>
<path fill-rule="evenodd" clip-rule="evenodd" d="M2 29.9346C2 19.0893 10.7919 10.2974 21.6372 10.2974C32.4825 10.2974 41.2744 19.0893 41.2744 29.9346C41.2744 40.7799 32.4825 49.5718 21.6372 49.5718C10.7919 49.5718 2 40.7799 2 29.9346ZM18.4364 26.0268H24.8185V38.0153C24.8185 39.7777 23.3898 41.2064 21.6274 41.2064C19.865 41.2064 18.4364 39.7777 18.4364 38.0153V26.0268ZM14.9508 18.6628C13.1884 18.6628 11.7597 20.0915 11.7597 21.8539C11.7597 23.6163 13.1884 25.0449 14.9508 25.0449H28.3041C30.0664 25.0449 31.4951 23.6163 31.4951 21.8539C31.4951 20.0915 30.0664 18.6628 28.3041 18.6628H14.9508Z" fill="#212121"/>
</svg>
