<svg width="150" height="150" viewBox="0 0 150 150" fill="none" xmlns="http://www.w3.org/2000/svg">
<rect width="150" height="150" rx="75" fill="white"/>
<path fill-rule="evenodd" clip-rule="evenodd" d="M0 75C0 33.5786 33.5786 0 75 0C116.421 0 150 33.5786 150 75C150 116.421 116.421 150 75 150C33.5786 150 0 116.421 0 75ZM62.775 60.075H87.15V105.862C87.15 112.593 81.6935 118.05 74.9625 118.05C68.2316 118.05 62.775 112.593 62.775 105.862V60.075ZM49.4625 31.95C42.7315 31.95 37.275 37.4065 37.275 44.1375C37.275 50.8685 42.7315 56.325 49.4625 56.325H100.462C107.193 56.325 112.65 50.8685 112.65 44.1375C112.65 37.4065 107.193 31.95 100.462 31.95H49.4625Z" fill="#FF3A3A"/>
</svg>
