<svg width="150" height="150" viewBox="0 0 150 150" fill="none" xmlns="http://www.w3.org/2000/svg">
<rect width="150" height="150" fill="white"/>
<path fill-rule="evenodd" clip-rule="evenodd" d="M25 75C25 47.3858 47.3858 25 75 25C102.614 25 125 47.3858 125 75C125 102.614 102.614 125 75 125C47.3858 125 25 102.614 25 75ZM66.85 65.05H83.1V95.575C83.1 100.062 79.4623 103.7 74.975 103.7C70.4877 103.7 66.85 100.062 66.85 95.575V65.05ZM57.975 46.3C53.4877 46.3 49.85 49.9377 49.85 54.425C49.85 58.9123 53.4877 62.55 57.975 62.55H91.975C96.4623 62.55 100.1 58.9123 100.1 54.425C100.1 49.9377 96.4623 46.3 91.975 46.3H57.975Z" fill="black"/>
</svg>
